
<svg xmlns="http://www.w3.org/2000/svg" viewBox="0 0 32 32">
  <path d="M15.63 31.388l-7.135-2.56V18.373l7.135 2.43zm1.3 0l7.135-2.56V18.373l-7.135 2.432zm-7.7-13.8l7.2-2.033 6.696 1.948-6.696 2.31-7.2-2.246z" fill="#f90"/>
  <path d="M15.73 22.1L9 19.785v-7.3l6.73 2.162zm1.3 0l6.73-2.314v-7.3L17.03 14.646zm-7.3-8.438l7.3-1.78 6.71 1.722-6.71 1.982-7.3-1.924z" fill="#f90"/>
  <path d="M25.092 20.225a.427.427 0 01-.348-.328c-.416-2.45-2.386-3.76-2.4-3.767a.367.367 0 01-.144-.367.394.394 0 01.272-.295c.082-.024 2.05-.6 2.504-3.27a.374.374 0 01.696-.008c.473 2.747 2.383 3.285 2.466 3.3a.394.394 0 01.272.296.37.37 0 01-.144.367c-.014.007-1.984 1.318-2.4 3.767a.393.393 0 01-.337.33.44.44 0 01-.437-.026zm-1.873-4.313c.582.48 1.346 1.24 1.753 2.285.412-1.047 1.176-1.8 1.753-2.285-.66-.297-1.44-.9-1.753-2.073-.313 1.18-1.094 1.784-1.753 2.073zm-9.097 4.234c-.384.024-.713-.24-.753-.608-.718-6.48-5.05-8.97-5.093-8.993a.683.683 0 01-.3-.89.65.65 0 01.604-.5c.193-.042 4.732-1.082 5.532-8.074a.644.644 0 01.665-.556.643.643 0 01.647.555c.8 6.992 5.34 8.032 5.532 8.074a.65.65 0 01.604.5.683.683 0 01-.3.89c-.043.023-4.375 2.514-5.093 8.993a.646.646 0 01-.64.606c-.002 0-.003 0-.005 0zm-4.09-9.578c1.393.943 3.128 2.704 3.85 5.508.718-2.804 2.453-4.566 3.844-5.51-1.5-.52-3.267-1.75-3.845-5.004-.583 3.254-2.345 4.493-3.845 5.005z" fill="#f90"/>
  <path d="M9.71 8.047a.351.351 0 01-.285-.147.35.35 0 01-.052-.321c.075-.256.13-.506.167-.752a10.388 10.388 0 00-1.914.363.348.348 0 01-.283-.05.352.352 0 01-.142-.248.355.355 0 01.082-.272.35.35 0 01.252-.11c2.877-.288 3.417-2.415 3.422-2.443a.35.35 0 01.563-.172.356.356 0 01.104.348c-.167.696-.38 1.32-.642 1.87.87-.354 1.95-.647 3.276-.774a.348.348 0 01.308.123.35.35 0 01.058.33.346.346 0 01-.231.231.35.35 0 01-.297-.047c-1.593.364-2.726.916-3.442 1.68a.35.35 0 01-.279.139.339.339 0 01-.036 0 .36.36 0 01-.313-.224 5.492 5.492 0 01-.287-.657 8.854 8.854 0 01-.788 1.016.348.348 0 01-.211.084zM27.32 8.047a.353.353 0 01-.211-.084 9.098 9.098 0 01-.788-1.018c-.107.22-.2.437-.287.656a.357.357 0 01-.313.224.302.302 0 01-.037 0 .348.348 0 01-.279-.139c-.716-.764-1.85-1.316-3.442-1.68a.35.35 0 01-.297.047.345.345 0 01-.23-.23.35.35 0 01.058-.33.347.347 0 01.307-.124c1.326.127 2.407.42 3.275.774a12.76 12.76 0 00-.642-1.87.356.356 0 01.105-.348.349.349 0 01.562.173c.006.027.546 2.154 3.422 2.442a.35.35 0 01.252.11.356.356 0 01.083.272.35.35 0 01-.142.247.347.347 0 01-.283.052 10.337 10.337 0 00-1.914-.364c.037.246.092.496.166.753a.351.351 0 01-.05.32.348.348 0 01-.285.147z" fill="#f90"/>
</svg>
