
<svg xmlns="http://www.w3.org/2000/svg" viewBox="0 0 256 256">
  <rect width="256" height="256" fill="#092E20" rx="28"/>
  <path fill="#FFFFFD" d="M186.377 171.925c-.882-.016-1.648-.02-2.28-.02-19.131 0-29.375 8.78-29.375 25.027v.081H136.33v-75.228h17.82v11.027c5.965-8.838 13.932-12.298 24.597-12.298 1.966 0 3.609.12 6.82.326v51.085h.81zM81.051 196.855c-20.489 0-32.482-12.84-32.482-34.507v-.082c0-21.508 12.238-34.89 32.482-34.89 20.407 0 32.767 13.3 32.767 34.89v.082c0 21.667-12.36 34.507-32.767 34.507zm.083-14.471c8.329 0 14.611-6.66 14.611-20.036v-.082c0-13.52-6.282-20.444-14.695-20.444-8.246 0-14.448 6.925-14.448 20.444v.082c0 13.376 6.202 20.036 14.532 20.036zM40.71 121.798h17.901v74.964H40.711v-74.964zm-.083-28.776h18.067v15.448H40.627V93.022z"/>
</svg>
