
<svg xmlns="http://www.w3.org/2000/svg" viewBox="0 0 256 256">
  <g>
    <path d="M254.312 149.427c-5.989 4.18-19.763 5.55-30.225 3.554-1.225-14.6-10.152-27.448-24.82-38.9l-8.501-5.599-5.689 8.419c-7.122 10.522-10.077 25.278-8.881 37.525.54 5.599.539 13.084-4.648 20.49-7.933-18.922-6.06-43.488.953-56.634-6.899-3.764-20.646-5.804-31.308-4.092l-3.765-8.168c-4.136-9.03-14.096-19.55-23.857-19.55H99.75l-.54.064c-10.63 1.906-19.51 7.964-25.994 16.896-9.569 13.147-15.146 31.252-15.146 49.763 0 36.852 17.103 63.586 43.86 63.586 26.307 0 47.807-11.728 60.837-36.915 7.964 3.361 24.227 8.147 45.177.635-3.361 4.498-6.3 8.347-9.252 12.21l-4.923 5.845 6.157 4.541c15.557 11.472 26.116 28.385 26.116 44.955h21.905c0-22.162-12.082-45.27-33.332-62.76h-.117c4.945-5.9 9.99-13.518 13.83-23.716l2.941-7.773-6.866-4.583z" fill="#2396ED"/>
    <path d="M110.363 94.959h21.69v19.763h-21.69V94.959zm0-25.342h21.69v19.763h-21.69V69.617zm-25.958 25.342h21.691v19.763h-21.69V94.959zm25.958-25.342h21.69v19.763h-21.69V69.617zm-25.958 0h21.691v19.763h-21.69V69.617zm-27.118 25.342h21.691v19.763h-21.69V94.959zm0-25.342h21.691v19.763h-21.69V69.617zM31.29 94.959h21.69v19.763h-21.69V94.959zm51.916 25.342h21.69v19.763h-21.69v-19.763zm-25.958 0h21.69v19.763h-21.69v-19.763z" fill="#2396ED"/>
    <path d="M48.889 0C21.892 0 0 20.667 0 46.252c0 19.954 13.011 36.745 30.976 43.507l.326.117.434.117-.117-.657c-.8-5.144-.984-6.795-.984-7.025 0-.666.292-.657.292-.657l8.42-.993c.223 0 .223 0 .656.326 5.362 2.839 11.407 4.488 17.886 4.488 17.76 0 32.498-12.302 36.043-28.575l.117-.56-.56-.232c-3.659-.984-7.524-1.53-11.505-1.53-22.258 0-40.248 17.872-40.248 39.962h-.878C18.641 94.04 0 75.402 0 52.537c0-22.865 18.642-41.503 41.503-41.503 22.067 0 40.323 17.442 41.378 39.226h.541l.11-.55C82.054 21.999 67.312 0 48.889 0" fill="#F0513B"/>
  </g>
</svg>
