
<svg xmlns="http://www.w3.org/2000/svg" viewBox="0 0 512 512">
  <path fill="#000000" d="M429.76 299.15c22.28 7.67 46.1-2.95 52.93-23.56 7.45-22.51-5.34-46.75-28.52-53.89s-45.77 2.55-53 24.63c-7.65 23.28 6.3 45.15 28.56 52.82zm-25.62 24.83a5.3 5.3 0 01-.85.52c-35.5 15.61-70.91 31.52-106.55 46.74-10.41 4.45-18.75 3.66-28.76-1.74-26.13-14.1-52.9-27-79.35-40.62-4.8-2.46-9.5-5.11-14.71-7.88 1.83-.95 3.25-1.76 4.72-2.45 34.73-16.44 69.5-32.79 104.2-49.31 5.26-2.52 9.34-2.51 14.57 0 34.89 16.77 69.89 33.31 104.85 49.94 1.13.54 2.22 1.15 3.62 1.89-2.14 1.51-3.84 2.98-5.74 3.91zM273.5 82.42c-2 40.05-26.45 73.76-61.95 85.6-24.77 8.3-50.7 5.36-74.85-6.3-30.72-14.84-48.41-40.01-54.23-73.46-8.92-51.31 7.59-94.9 48.88-128.49 1.18-.96 3.18-1.34 4.68-1.1 24.88 4.15 49.18 11.33 72.11 22.89 8.43 4.25 16.68 8.84 24.87 13.54 4.58 2.62 7.76 6.42 9.37 11.85 7.43 24.93 14.58 49.93 22.62 74.71 2.8 8.6 5.56 17.22 8.5 24.76zm-6.31 334.1c-6.52 21.95-30.18 31.41-51.9 21.05-3.07-1.46-6.47-3.54-8.14-6.3-13.68-22.58-26.81-45.48-40-68.35-1.15-2-1.5-4.57-2.7-8.32-1.97 3.03-3.55 5.29-4.93 7.67-13.14 22.71-26.02 45.58-39.7 68-4.95 8.11-12.36 12.31-21.9 12.69-16.47.67-30.13-11.64-30.8-27.87-.28-6.87 2.06-12.11 6.14-17.2 21.66-27.01 43.51-53.88 64.83-81.16 5.35-6.83 6.07-13.47 2.51-21.09a84138.27 84138.27 0 01-16.1-34.62c-2.76-5.95-5.52-11.9-8.66-18.67-6.2 8.69-11.5 16.22-16.86 23.71-24.55 34.31-49.08 68.63-73.81 102.8-3.96 5.46-9.2 8.66-16.28 8.84-7.16.18-13.12-2.38-17.65-7.92-5.29-6.47-5.17-15.14.3-21.47 1.97-2.3 4.27-4.34 6.1-6.76 34.73-45.87 69.32-91.86 104.2-137.6 6.62-8.67 18.2-10.86 28.18-5.56 10.39 5.54 14.2 16.79 9.35 28.95-8.37 21-16.89 41.94-25.41 62.88-1.95 4.8-1.95 4.8 2.63 7.31 14.96 8.17 30 16.19 44.91 24.43 3.14 1.74 5.56 1.11 8.14-1 16.45-13.47 33.01-26.78 49.54-40.14 10.36-8.38 9.22-24.83-2.21-32.3-16.44-10.73-33.86-19.33-51.27-28.01-2.6-1.3-5.34-4.99-5.53-7.72-.31-4.41 2.33-7.39 6.49-8.82 5.08-1.76 9.65-.57 14.31 1.61 19.57 9.15 39.2 18.2 58.65 27.57 27.47 13.21 27.48 50.68-.12 63.76-12.81 6.06-25.77 11.84-38.63 17.81-3.97 1.84-4.47 3.92-1.96 7.77 13.27 20.43 26.24 41.03 39.42 61.52 3.21 5.01 4 10.59 2.87 16.28z"/>
</svg>
