
<svg xmlns="http://www.w3.org/2000/svg" viewBox="0 0 32 32">
  <path d="M31.396 14.575L17.425.604a2.06 2.06 0 00-2.914 0l-2.9 2.9 3.68 3.68c.856-.3 1.836-.095 2.518.587a2.45 2.45 0 01.581 2.533l3.547 3.547c.858-.296 1.848-.105 2.533.582a2.45 2.45 0 010 3.469 2.452 2.452 0 01-3.47 0 2.453 2.453 0 01-.542-2.67l-3.318-3.318v8.715a2.453 2.453 0 01.65 4.301 2.451 2.451 0 01-3.469 0 2.45 2.45 0 010-3.468c.253-.254.545-.445.857-.572v-8.786a2.45 2.45 0 01-1.33-3.243L9.31 4.128.604 12.834a2.06 2.06 0 000 2.914l13.97 13.97a2.06 2.06 0 002.914 0l13.906-13.906a2.06 2.06 0 000-2.914" fill="#de4c36"/>
</svg>
