
<svg xmlns="http://www.w3.org/2000/svg" viewBox="0 0 256 256">
  <path fill="#D33833" d="M199.336 140.629s2.395-26.352-22.146-26.352-37.057 5.557-45.778 10.168c-8.721 4.611-22.145 14.779-27.703 12.562-5.558-2.216-3.342-16.994 0-25.716 3.34-8.721 18.12-40.398 17.175-55.946-.946-15.550-13.834-28.648-29.384-28.648-15.55 0-20.875 12.671-20.875 22.145 0 9.476 4.927 33.723 9.477 44.837 4.541 11.125 11.833 36.841 0 41.452-11.834 4.611-17.176-8.72-22.734-8.72-5.558 0-19.392 1.893-19.392 20.875 0 18.977 3.768 41.122 28.649 41.122 24.88 0 43.857-18.12 52.578-18.12 8.72 0 33.606 21.2 70.658 21.2 37.051 0 57.188-9.476 57.188-26.651s-24.897-23.158-47.713-23.158"/>
  <path fill="#231F20" d="M162.716 153.196c.794 1.508.394 3.432-1.032 4.36-1.429.928-3.287.512-4.193-.865-7.068-10.742-15.66-17.811-26.275-21.733-10.987-4.06-23.47-4.383-36.22-.626-1.71.504-3.482-.384-3.988-1.976-.513-1.597.384-3.364 2.075-3.869 14.04-4.135 27.976-3.65 40.334.823 11.523 4.497 20.695 11.467 29.3 23.886zm23.016 7.95c.923 1.263.752 3.19-.374 4.314-1.125 1.125-2.983 1.272-4.312.354-27.847-19.264-60.053-13.659-96.782 1.942-14.232 6.066-22.1-7.496-7.264-13.953 41.727-18.096 80.067-22.813 108.732-7.343zm1.554-45.593c-.965-.147-1.848-.449-2.599-.879.024 0 .024-.024.024-.024a327.458 327.458 0 00-.394-.172 28.863 28.863 0 00-2.919-.945c-7.211-1.778-15.68-2.378-27.534-2.035-16.957.478-38.677 4.36-65.376 16.556-1.689.77-3.654.01-4.371-1.695-.724-1.715.01-3.67 1.721-4.396 28.264-12.86 51.27-16.986 69.257-17.482 12.643-.354 21.82.429 29.879 2.452.134.025.244.05.378.074 5.283 1.296 9.374 3.261 12.433 6.615 1.224 1.344 1.125 3.408-.28 4.59-1.406 1.186-3.47 1.087-4.72-.256-1.224-1.33-3.313-2.33-6.5-2.403z"/>
  <path fill="#F0D6B7" d="M221.922 135.128c-1.573 1.83-4.662 1.074-6.893 1.318-.946.099-1.61.969-2.33 1.573-2.223 1.83-5.191 2.65-8.1 2.306-4.838-.557-8.28-5.312-7.816-10.15.125-1.463.535-2.813 1.15-4.058 1.323-2.674 3.439-4.654 5.649-6.647 2.699-2.44 4.518-4.157 4.518-7.876 0-2.33-1.075-4.32-1.83-6.424-.512-1.441-1.047-2.868-1.616-4.295-1.573-3.903-3.292-6.387-6.585-8.903-3.402-2.6-5.28-5.608-6.73-9.387-.464-1.245-1.124-3.415-2.337-4.25-.285-.194-.878-.508-1.23-.535-.244-.025-.563.122-.807.171a8.512 8.512 0 00-.757.193c-3.683 1.05-5.205 6.675-6.035 9.926-1.025 3.988-1.721 7.84-2.943 11.78-.634 2.014-1.293 4.03-1.892 6.06-.513 1.745-1.05 3.463-1.538 5.21-.427 1.51-.976 2.996-1.44 4.491-1.463 4.71-2.87 9.459-4.332 14.171-1.074 3.464-2.148 6.94-3.245 10.394-.854 2.7-1.709 5.387-2.601 8.071-.341 1.043-.646 2.112-.989 3.157-1.501 4.468-2.968 8.927-4.554 13.352-2.174 5.972-4.271 12.182-9.314 16.45-.585.488-1.172.989-1.83 1.367-1.391.804-3.038 1.196-4.634 1.244-3.317.097-5.899-1.636-8.537-3.257-1.44-.88-2.881-1.831-4.443-2.43-3.329-1.306-7.093-1.257-10.52-.365-1.83.476-3.585 1.222-5.191 2.185-1.622.975-3.156 2.037-4.516 3.28-.878.805-1.696 1.67-2.331 2.65-.148.219-.268.45-.403.684-.854 1.39-1.562 2.74-2.282 4.193-.756 1.524-1.5 3.01-2.21 4.56-.744 1.598-1.415 3.22-2.06 4.848-.512 1.283-.988 2.62-1.245 3.977-.512 2.626-.5 5.324.049 7.951.082.414.171.829.268 1.245.66.012.074.012.087.024 1.11 4.663 3.34 9.142 6.916 12.523.305.293.622.573.928.854a25.564 25.564 0 002.345 1.866c.22.154.452.317.67.476.134.098.28.171.415.268.819.536 1.66 1.037 2.528 1.48a26.326 26.326 0 001.684.83c.33.159.67.293 1.014.438.878.378 1.768.707 2.65 1.013.28.098.55.184.83.256a25.613 25.613 0 004.028.83c.218.025.437.05.67.074 1.97.232 3.977.22 5.924-.037.144 0 .28-.036.427-.048 0 0 .012 0 .024-.013 1.245-.134 2.48-.33 3.7-.61 2.15-.464 4.27-1.16 6.303-2.038 2.137-.928 4.178-2.06 6.157-3.304.913-.597 1.805-1.22 2.674-1.854.232-.184.475-.341.694-.537.317-.244.621-.513.915-.793.451-.415.878-.841 1.318-1.282.207-.207.427-.4.621-.62.33-.354.634-.745.927-1.135.817-1.072 1.586-2.183 2.33-3.304a8.14 8.14 0 01-.378-.842c-.219-.634-.39-1.282-.45-1.94-.122-1.051-.037-2.11.244-3.135.5-1.745 1.524-3.243 2.858-4.383.025-.5.037-.5.06-.098 2.221-1.83 5.338-2.674 8.22-2.259 1.147.171 2.258.5 3.279 1.026 3.04 1.524 4.882 4.345 5.385 7.634-1.817 5.007-3.634 10.041-5.563 15.023-.451 1.184-.89 2.369-1.367 3.55l-.195.488c-.049.109-.83.22-.12.329-.414 1.05-.806 2.099-1.21 3.145-.432 1.147-.878 2.27-1.27 3.414-.952 2.81-1.866 5.644-2.674 8.5-.439 1.562-.854 3.133-1.215 4.725-.097.378-.17.768-.256 1.16a27.618 27.618 0 00-.317 1.635c-.122.756-.22 1.526-.282 2.294-.024.305-.049.598-.061.904-.37.902-.012 1.83.073 2.748.317 3.378 1.293 6.684 2.748 9.789.122.244.256.475.39.72.573 1.037 1.22 2.037 1.965 2.956 1.932 2.357 4.395 4.26 7.119 5.483 3.66 1.622 7.66 2.062 11.572 1.281 2.223-.464 4.358-1.245 6.328-2.357.244-.133.5-.28.731-.427a19.245 19.245 0 001.05-.671c.281-.195.55-.39.82-.597.846-.634 1.635-1.33 2.38-2.06.097-.97.207-.207.305-.317 2.968-3.086 5.094-6.977 6.216-11.133.207-.78.39-1.574.536-2.38.037-.17.061-.354.098-.524.073-.39.122-.793.195-1.196.122-.817.22-1.647.28-2.478.086-1.037.122-2.086.122-3.134 0-.549-.025-1.098-.05-1.647-.024-.767-.097-1.534-.171-2.302-.11-1.123-.268-2.246-.452-3.365a53.201 53.201 0 00-.646-3.172 96.152 96.152 0 00-1.745-6.643c-.698-2.406-1.464-4.798-2.234-7.204.866-.049 1.745-.085 2.6-.183 2.662-.28 5.275-.976 7.766-1.976l.122-.05c.854-.33 1.696-.696 2.514-1.1.11-.49.207-.102.317-.158a27.677 27.677 0 002.454-1.354c.143-.85.293-.17.438-.268 1.465-.939 2.832-2.05 4.058-3.304.084-.85.17-.17.255-.256.732-.756 1.403-1.55 2.023-2.393.122-.17.231-.341.353-.5.646-.938 1.22-1.914 1.732-2.93.22-.439.427-.878.621-1.33.914-2.137 1.574-4.395 1.928-6.718.5-3.279.341-6.633-.5-9.84-.646-2.473-1.708-4.822-3.135-6.942-.294-.427-.61-.829-.928-1.233-.83-1.026-1.733-1.978-2.723-2.845-.354-.305-.72-.585-1.086-.878-.256-.183-.5-.378-.756-.549-.476-.317-.964-.634-1.465-.927-.097-.061-.171-.134-.268-.195a32.63 32.63 0 00-2.1-1.171 27.58 27.58 0 00-2.82-1.233c-.305-.109-.622-.244-.927-.353-.585-.219-1.171-.426-1.768-.608a24.242 24.242 0 00-3.55-.817 22.66 22.66 0 00-3.207-.257c-1.035-.012-2.083.049-3.12.183-1.883.232-3.755.731-5.526 1.464-3.293 1.364-6.279 3.5-8.818 6.09-.268.28-.536.56-.792.853-2.38 2.748-4.394 5.837-6.09 9.045-1.33 2.527-2.477 5.154-3.536 7.84-.281.695-.536 1.378-.817 2.085-1.33 3.484-2.527 7.021-3.682 10.58-.476 1.513-.951 3.025-1.426 4.527-.749 2.453-1.5 4.907-2.21 7.386-.28.927-.524 1.879-.792 2.82-1.452 5.03-2.698 10.113-3.676 15.28-.97 5.088-1.72 10.236-1.66 15.414.06 4.53.707 9.071 2.33 13.304.291.809.621 1.593.976 2.369.123.244.244.5.379.745 1.064 1.97 2.405 3.792 3.952 5.407 1.55 1.611 3.316 2.98 5.252 4.057a20.64 20.64 0 002.526 1.232c4.077 1.709 8.61 2.111 12.975 1.208 2.513-.524 4.944-1.44 7.154-2.735.719-.414 1.391-.891 2.06-1.38 1.854-1.378 3.414-3.15 4.627-5.114 1.904-3.109 2.943-6.674 3.268-10.297.037-.426.085-.866.11-1.292.012-.147.024-.305.036-.45.05-.682.086-1.365.111-2.047.11-3.109-.024-6.23-.354-9.325-.025-.159-.05-.33-.073-.5-.122-.928-.256-1.854-.403-2.784-.049-.28-.086-.56-.134-.841a145.182 145.182 0 01-.28-2.247c-.645 1.83-1.29 3.66-1.928 5.496-.255.731-.513 1.464-.781 2.185a1136.28 1136.28 0 01-3.294 8.965c-1.208 3.268-2.429 6.538-3.657 9.818-.207.536-.4 1.075-.607 1.62-.33.892-.694 1.781-1.074 2.663-.427.953-.878 1.903-1.366 2.82-.427.782-.868 1.562-1.342 2.319-.427.69-.878 1.355-1.355 2.01-.33.462-.671.926-1.037 1.366-.28.352-.573.694-.866 1.036a26.721 26.721 0 01-2.234 2.221c-.184.159-.366.317-.55.463-2.405 1.99-5.42 3.135-8.476 3.22h-.428c-1.817 0-3.63-.379-5.324-1.16-.183-.086-.378-.183-.561-.28-.685-.366-1.33-.807-1.928-1.313-.305-.257-.586-.525-.866-.818-.585-.61-1.11-1.28-1.574-1.99-.586-.904-1.048-1.88-1.427-2.893-.232-.646-.427-1.292-.573-1.954-.268-1.136-.414-2.296-.463-3.466-.06-1.245.1-8.7.1-8.7s.634-3.842 1.001-5.772c.439-2.344.964-4.675 1.598-6.99.247-.89.52-1.77.803-2.649.5-1.573 1.05-3.133 1.622-4.705.488-1.33.99-2.661 1.513-3.977.608-1.561 1.233-3.14 1.866-4.69.5-1.245.992-2.502 1.513-3.746.5-1.208 1.025-2.43 1.513-3.622.279-.673.572-1.356.866-2.016.5-1.122.976-2.246 1.475-3.355.878-1.953 1.777-3.894 2.69-5.822.274-.59.573-1.18.853-1.769.972-2.023 1.94-4.046 2.93-6.072.377-.768.756-1.536 1.122-2.305.573-1.171 1.148-2.35 1.72-3.512.488-1.001.988-2.012 1.476-3.01.952-1.94 1.903-3.893 2.893-5.835.952-1.88 1.903-3.77 2.869-5.638.916-1.77 1.855-3.525 2.797-5.298.488-.902.964-1.805 1.45-2.725.122-.22.22-.451.342-.67.25-.5.5-.987.745-1.488 5.851-11.817 11.56-23.706 16.901-35.78.403-.915.805-1.83 1.208-2.747.878-2.002 1.744-4.02 2.587-6.033.263-.62.537-1.232.8-1.829.33-.756.66-1.5.978-2.258a7.536 7.536 0 00.5-1.574c.268-1.551-.257-3.146-1.44-4.173-.366-.341-.768-.622-1.196-.854-.364-.183-.73-.354-1.122-.476a6.288 6.288 0 00-1.903-.293 10.231 10.231 0 00-3.084.621c-.256.098-.5.22-.756.33-1.378.683-2.551 1.732-3.451 2.93-.643.878-1.158 1.854-1.538 2.881-.255.756-.452 1.523-.609 2.307-1.623 8.148-4.297 16.059-7.987 23.596-.585 1.219-1.208 2.43-1.818 3.635-.939 1.83-1.904 3.66-2.893 5.48-.22.427-.452.829-.681 1.257-1.744 3.232-3.538 6.449-5.337 9.654-.865 1.55-1.745 3.085-2.621 4.622-.549.97-1.099 1.928-1.647 2.894-.11.195-.232.389-.33.584-.38.646-.744 1.282-1.111 1.94-.99 1.732-1.94 3.5-2.882 5.26-.916 1.713-1.843 3.416-2.771 5.128-.475.879-.952 1.769-1.427 2.66-.318.573-.61 1.147-.928 1.721-.44.842-.891 1.671-1.342 2.502-.926 1.74-1.853 3.476-2.8 5.204-.83 1.526-1.65 3.073-2.48 4.6-.952 1.756-1.904 3.52-2.87 5.263-.255.428-.487.866-.742 1.306-.708 1.294-1.403 2.6-2.123 3.894-.878 1.61-1.769 3.22-2.65 4.822-.514.927-1.027 1.854-1.55 2.8-.879 1.559-1.746 3.134-2.626 4.707-.572 1.05-1.135 2.099-1.756 3.16-.952 1.708-1.903 3.417-2.88 5.126-.929 1.655-1.866 3.304-2.796 4.957-.458.817-.915 1.647-1.367 2.478-.5.915-.99 1.83-1.515 2.734-.83 1.484-1.66 2.968-2.49 4.441-.67 1.207-1.34 2.417-2.023 3.623-.256.451-.512.919-.768 1.378-.756 1.394-1.524 2.783-2.308 4.157-.391.683-.772 1.367-1.159 2.047-1.184 2.149-2.356 4.297-3.57 6.437-.391.671-.77 1.343-1.172 2.024-.33.573-.671 1.145-1.001 1.719-.805 1.403-1.623 2.797-2.443 4.198-.879 1.527-1.769 3.037-2.65 4.576-.207.354-.403.707-.622 1.06-.391.683-.793 1.366-1.184 2.06-.812 1.403-1.647 2.82-2.478 4.222-1.086 1.854-2.173 3.695-3.257 5.55l.24.246z"/>
  <path fill="#231F20" d="M190.717 174.826c.048-2.76.28-5.524.671-8.245.195-1.33.439-2.65.707-3.977.039-.195.087-.39.122-.584.039-.147.062-.293.098-.44.366-1.77.83-3.512 1.33-5.251.365-1.232.767-2.454 1.22-3.66.513-1.38 1.074-2.734 1.671-4.082.549-1.232 1.148-2.456 1.806-3.67.085-.17.183-.33.305-.463.471-.85.965-.243 1.437-.243h.122c.268 0 .536.037.804.11.634.159 1.196.5 1.635.977.475.524.841 1.17.976 1.879.133.695.085 1.416-.135 2.084-.72.170-.157.342-.244.5-.207.378-.452.744-.683 1.099-.56.83-1.098 1.671-1.635 2.51-.33.53-.66 1.048-.976 1.574-.231.367-.445.756-.682 1.136-.377.646-.756 1.294-1.123 1.952-.525.94-1.05 1.879-1.549 2.821-.329.62-.67 1.245-.988 1.867-.343.66-.672 1.33-1.002 2-.731 1.478-1.426 2.978-2.083 4.48-.513 1.184-.989 2.38-1.432 3.6-.28.73-.536 1.463-.804 2.21-.182.549-.365 1.099-.536 1.662-.208.633-.402 1.268-.597 1.916-.086.28-.16.561-.244.842-.193.695-.377 1.39-.56 2.083-.61 2.724-1.025 5.488-1.232 8.258-.292-.963-.56-1.938-.78-2.924a43.044 43.044 0 01-.743-4.225z"/>
  <path fill="#231F20" d="M85.861 17.82c-.609-.716-.672-1.662-.645-2.551.024-.962.073-1.94.293-2.881a17.05 17.05 0 01.842-2.65c.232-.553.488-1.098.829-1.586.377-.536.841-.976 1.427-1.233.865-.378 1.903-.292 2.723.196.365.22.669.512.963.83.28.33.524.683.744 1.051.62 1.013.854 2.173.927 3.317.06 1.16-.11 2.333-.512 3.416a7.325 7.325 0 01-1.514 2.453 5.679 5.679 0 01-3.424 1.744c-.96.11-1.977-.073-2.717-.695-.171-.146-.33-.317-.44-.5a2.88 2.88 0 01-.496-.91z"/>
</svg>
