
<svg xmlns="http://www.w3.org/2000/svg" viewBox="0 0 256 256">
  <path d="M127.943 0C57.307 0 0 57.307 0 127.943c0 70.636 57.307 127.943 127.943 127.943 70.636 0 127.943-57.307 127.943-127.943C255.886 57.307 198.58 0 127.943 0zm46.047 100.39c-2.833 0-5.134-2.3-5.134-5.135 0-2.833 2.3-5.134 5.134-5.134 2.833 0 5.134 2.3 5.134 5.134 0 2.833-2.3 5.134-5.134 5.134zm-46.047-23.27c-31.246 0-56.542 25.296-56.542 56.542a56.35 56.35 0 005.806 24.972L54.09 182.506l31.539-31.539a56.348 56.348 0 004.682 9.445l-13.88 13.881 17.285 17.284 14.421-14.422c5.342 3.248 11.283 5.577 17.583 6.762L112.2 198.38h24.445l-13.521-14.463c6.3-1.185 12.241-3.514 17.583-6.762l14.42 14.422 17.286-17.284-13.88-13.881a56.348 56.348 0 004.682-9.445l31.539 31.539-23.117-23.872a56.35 56.35 0 005.806-24.972c0-31.246-25.296-56.542-56.542-56.542h-.01z" fill="#2572AF"/>
</svg>
