
<svg xmlns="http://www.w3.org/2000/svg" viewBox="0 0 256 256">
  <path fill="#001e2b" d="M171.791 136.616c-11.611-51.45-39.172-68.233-42.067-74.861-.48-.811-1.39-2.675-1.39-2.675-.311-4.308-.044-7.610.086-9.307l.043-.446v-.325a10.604 10.604 0 0 0-2.545-.498c.065-.887-2.478-11.719-3.431-13.902-.886-1.914-1.75-3.333-2.634-4.308l-.006-.006c-3.224-3.724-7.544-5.122-8.884-5.122l-.172.003-.064.014-.116.03c-.117.331-1.152 3.29 1.241 7.18.937 1.525 1.953 2.85 2.914 4.07 1.263 1.602 2.359 2.984 3.044 4.687 2.365 5.816 2.193 15.185 2.193 15.57 0 .156.044 3.36.078 5.742-1.73 5.944-1.303 18.352-.304 22.966h-.048c-.9.628-.613 3.075-1.064 8.453-.452 5.379-2.139 23.952-6.225 36.195-4.086 12.244-5.086 20.951-3.857 34.082 1.23 13.131 9.63 24.768 16.117 31.066 6.487 6.297 16.993 10.982 16.993 10.982s-.857-15.967-1.35-21.851c-.492-5.885-.428-31.229 1.855-41.417 2.616-11.621 7.009-20.35 7.009-20.35z"/>
  <path fill="#13aa52" d="M127.275 150.469c.563 11.2-3.53 28.151-4.693 33.768-1.16 5.616-2.087 24.233-2.087 24.233 1.901-1.225 4.048-2.643 4.048-2.643 1.901-1.618 14.231-15.267 14.231-15.267 3.78-4.278 7.337-11.037 9.69-18.761 2.355-7.724 3.68-16.95 3.68-25.591 0-8.642-.56-16.75-3.12-24.16-2.56-7.41-7.075-14.125-12.565-18.334-5.49-4.208-11.785-5.709-16.56-6-4.776-.291-7.827.218-10.092.652-2.265.435-3.746.755-3.746.755s2.684 4.977 3.64 7.376c.957 2.398 2.187 14.511 2.722 18.513.535 4.002 1.424 14.334 2.05 17.713.622 3.38 1.389 7.044 2.08 7.896.692.852 1.51 1.265 2.16 1.507a6.337 6.337 0 0 0 2.368.372c1.336-.093 3.066-.84 4.194-2.028z"/>
</svg>
