
<svg xmlns="http://www.w3.org/2000/svg" viewBox="0 0 256 256">
  <path fill="#00546B" d="M179.076 94.886c-3.568-.1-6.336.268-8.656 1.25-.668.27-1.74.27-1.828 1.116.357.355.4.936.713 1.428.535.893 1.473 2.096 2.32 2.72l2.855 2.053c1.74 1.07 3.703 1.695 5.398 2.766.982.625 1.963 1.428 2.945 2.098.5.357.803.938 1.428 1.16v-.135c-.312-.4-.402-.98-.713-1.428l-1.34-1.293c-1.293-1.74-2.9-3.258-4.64-4.506-1.428-.982-4.55-2.32-5.13-3.97l-.088-.1c.98-.1 2.14-.447 3.078-.715 1.518-.4 2.9-.312 4.46-.713l2.143-.625v-.4c-.803-.803-1.383-1.874-2.23-2.632-2.275-1.963-4.775-3.882-7.363-5.488-1.383-.892-3.168-1.473-4.64-2.23-.537-.268-1.428-.402-1.74-.848-.805-.98-1.25-2.275-1.83-3.436l-3.658-7.763c-.803-1.74-1.295-3.48-2.275-5.086-4.596-7.585-9.594-12.18-17.268-16.687-1.65-.937-3.613-1.34-5.7-1.83l-3.346-.18c-.715-.312-1.428-1.16-2.053-1.562-2.543-1.606-9.102-5.086-10.977-.5-1.205 2.9 1.785 5.755 2.8 7.228.76 1.026 1.74 2.186 2.277 3.346l.336.714c.625 1.74.625 3.658 1.07 5.397.803 3.080 1.562 6.425 2.632 9.283.535 1.473 1.116 3.034 1.785 4.373.45.803 1.205 1.205 1.383 2.53-.78 1.116-.848 2.855-1.295 4.28-2.053 6.336-1.273 14.214 1.562 18.854.848 1.384 2.9 4.373 5.666 3.213 2.454-.915 1.918-4.064 2.632-6.78.18-.625.1-1.06.27-1.474v.133l1.605 3.258c1.205 1.918 3.346 3.925 5.13 5.31 1.116.848 2 2.456 3.436 3.01v-.135h-.133c-.312-.4-.67-.58-1.048-.892-.803-.803-1.695-1.785-2.32-2.677-1.873-2.498-3.523-5.265-4.996-8.12-.715-1.383-1.34-2.9-1.918-4.283-.27-.536-.27-1.34-.715-1.606-.67.98-1.65 1.83-2.143 3.034-.848 1.918-.936 4.283-1.25 6.737l-.18.135c-1.562-.357-2.1-1.982-2.676-3.346-1.428-3.48-1.695-9.064-.447-13.08.313-.98 1.7-4.105 1.16-5.042-.27-.848-1.16-1.338-1.652-2.008-.58-.848-1.205-1.918-1.605-2.855-1.07-2.5-1.605-5.265-2.766-7.764-.537-1.16-1.473-2.365-2.232-3.435-.848-1.205-1.783-2.053-2.453-3.48-.223-.5-.535-1.294-.18-1.83.1-.357.313-.5.67-.58.67-.5 2.545.134 3.214.4 1.872.67 3.434 1.293 5.086 2.232.803.447 1.605 1.294 2.586 1.518h1.16c1.785.4 3.748.848 5.355 1.428 2.9 1.16 5.534 2.855 7.94 4.373 7.228 4.64 13.168 11.21 17.222 19.08.625 1.205.848 2.32 1.383 3.613.937 2.187 2.1 4.373 3.035 6.47.937 2.098 1.83 4.196 3.168 5.935.67.937 3.346 1.428 4.55 1.918.848.4 2.231.76 3.012 1.25 1.517.937 3.034 2.008 4.46 3.034.713.534 2.945 1.65 3.078 2.54m-45.5-38.772a9.152 9.152 0 00-2.365.312l.1.1.223.135h.133l.536.358c.447.535.982 1.026 1.34 1.562l.357.714.1.1.224-.1c.536-.268.803-.803.803-1.562-.223-.223-.268-.447-.447-.67-.225-.358-.67-.536-1.004-.848"/>
  <path fill="#00546B" d="M197.308 23.86c-.223 0-.312.1-.312.1v.1l.177.358c.1.447.402.938.58 1.383l.18.1.178-.1c.402-.223.58-.67.58-1.294-.133-.178-.133-.357-.267-.58-.178-.28-.446-.4-.803-.4-.1.022-.223.022-.312.133m-72.743 49.11c-1.205.268-2.1.446-3.034.848l-.18.18.134.268.312.446.536.758c.134.223.268.4.357.624.1.178.223.4.357.58l.18.357.223-.18c.67-.446.982-1.16.982-2.23-.268-.357-.402-.67-.625-1.027-.3-.267-.58-.535-.892-.802-.133-.1-.132-.178-.335-.22"/>
  <path fill="#5D87A1" d="M242.897 0v251.034H0V0h242.897zM223.101 35.86a10.304 10.304 0 00-3.123 1.562c-.223.223-.223.446-.223.67v.624h.223l.178-.223c.447-.535 1.117-.937 1.829-1.07.179 0 .357 0 .58.178.268.402.09 1.026-.134 1.473-.134.1-.134.223-.268.312-.89 1.562-2.276 2.945-3.749 4.238-1.16.982-2.275 1.964-3.48 2.9-2.053 1.606-4.105 3.212-6.202 4.774-5.087 3.79-9.907 7.763-14.382 11.978-2.812 2.632-5.22 5.31-7.763 8.12-2.186 2.41-3.926 5.176-5.756 7.897-2.32 3.48-4.417 7.183-6.157 11.12-1.562 3.48-2.767 7.026-3.837 10.687-1.25 4.372-2.053 8.745-2.855 13.26-.357 2.186-.58 4.328-.982 6.604-.044 1.115-.223 2.275-.223 3.48 0 .58.134 1.16.134 1.83l.446 1.516.848-.178c1.786-1.605 3.347-3.48 4.997-5.354.625-.67 1.07-1.704 1.918-2.098.268 0 .536.1.67.357l.313.536c.223.58.58 1.16.803 1.74.714 1.472 1.562 2.9 2.364 4.372.937 1.517 1.918 3.034 2.989 4.505 1.205 1.697 2.498 3.347 3.97 4.684 1.115 1.07 2.854 1.562 4.15 2.498.892.624 2.23 1.115 3.078 1.83.625.535 1.382 1.293 1.918 2.01l.268.267c1.294 2.186 2.9 4.016 4.73 5.756 1.115 1.07 2.32 2.1 3.702 2.855l1.606 1.115c.447.268 1.83.848 2.008 1.205-1.205.223-2.498.312-3.703.58-1.338.223-2.677.267-3.97.535-.982.178-1.918.624-2.9.848l-.402.268c.96 1.072.067 2.455.536 3.66.357.914.892 1.83 1.384 2.63.536.848 1.16 1.786 1.83 2.588 1.07 1.295 2.23 2.588 3.436 3.748 1.295 1.25 2.72 2.276 4.15 3.48 1.027.803 2.143 1.472 3.213 2.186 1.072.67 2.365 1.07 3.57 1.605.49.223 2.678 1.27 3.658.938 0-.045-.045-.045-.09-.09-.49-.446-1.205-.58-1.74-1.026-.714-.446-1.428-1.026-2.008-1.562-.892-.847-1.785-1.784-2.587-2.72-1.963-2.364-3.57-5.04-5.087-7.672-1.472-2.63-2.677-5.4-3.748-8.21-.446-1.294-.669-2.632-1.115-3.837h.268c.58-.134 1.205 0 1.784 0 1.25.09 2.5.223 3.703.312 2.142.18 4.283.09 6.425.535.982.224 1.963.536 2.944.892l1.384.537h.134l-.134-.313c-.535-.892-1.16-1.472-1.83-2.186-.624-.67-1.338-1.25-2.008-1.83-1.695-1.472-3.658-2.677-5.62-3.837-1.83-1.07-3.793-2.142-5.712-3.08-1.205-.58-2.23-1.337-3.436-1.918-.178-.09-.402-.223-.58-.267h-.268l.134.267.446.446c.58.8 1.16 1.472 1.74 2.23 1.115 1.517 2.275 3.034 3.48 4.462 1.294 1.473 2.722 2.9 4.194 4.194 1.205 1.026 4.15 3.658 5.8 4.194-.224-.49-.938-.938-1.34-1.517a122.6 122.6 0 01-1.472-2.677c-.447-1.026-.447-1.918 0-2.9.134-.267.536-.535.892-.67.447-.223 1.072-.178 1.607-.268.669-.1 1.382-.178 2.052-.313 1.384-.223 2.766-.624 4.15-.936 2.677-.67 5.354-1.473 8.03-2.365 1.295-.402 2.59-1.026 3.837-1.562 3.658-1.562 7.27-3.258 10.731-5.176 6.069-3.48 11.624-7.585 16.622-12.338 3.212-3.079 6.246-6.247 8.835-9.817 1.517-2.098 2.767-4.284 4.016-6.515 1.115-2.008 2.142-4.105 3.123-6.247.715-1.516 1.205-3.168 1.696-4.773.58-1.83 1.115-3.793 1.562-5.712.49-1.963.892-3.97 1.16-5.979.09-.848.09-1.74.18-2.587.44-1.83.044-3.66-.135-5.488-.135-1.74-.447-3.48-.759-5.176-.58-2.944-1.338-5.846-2.385-8.61a60.785 60.785 0 00-3.346-7.317 54.24 54.24 0 00-4.64-7.45c-1.695-2.32-3.658-4.417-5.667-6.514-1.962-2.008-4.15-3.882-6.38-5.667-2.23-1.74-4.684-3.256-7.093-4.73-3.034-1.827-6.38-3.21-9.683-4.505-3.256-1.293-6.558-2.23-9.995-3.034-1.695-.4-3.48-.624-5.22-.937-2.144-.358-4.374-.358-6.515-.625-.982-.134-2.01-.134-2.989-.268h-5.8c-1.338.18-2.677.446-4.016.714-1.918.4-3.837.848-5.712 1.472-1.472.4-2.944 1.026-4.417 1.562-3.748 1.204-7.272 2.9-10.73 4.773-3.48 1.83-6.782 3.97-9.817 6.514-1.517 1.25-3.034 2.63-4.372 4.06-1.34 1.474-2.634 2.944-3.926 4.462-2.01 2.41-3.97 5.042-5.712 7.63-1.74 2.588-3.258 5.31-4.64 8.12-1.25 2.52-2.275 5.13-3.212 7.806-.892 2.588-1.562 5.265-2.143 7.942-.223 1.116-.357 2.276-.58 3.392l-.624 4.105L56.27 74.047c-.178 1.384-.268 2.767-.268 4.15 0 3.703.624 7.272 1.562 10.73.937 3.48 2.365 6.782 3.97 9.994 1.56 3.168 3.48 6.158 5.532 8.924 2.054 2.81 4.374 5.4 6.916 7.763 2.498 2.32 5.22 4.462 8.03 6.425 2.188 1.516 4.462 2.944 6.827 4.15 1.606.803 3.213 1.562 4.907 2.186 2.364.802 4.772 1.56 7.227 2.142 2.498.58 5.086.803 7.673.982 1.83.08 3.658 0 5.488-.134 2.053-.224 4.105-.535 6.113-.937 1.294-.223 2.632-.58 3.926-.848 2.143-.402 4.15-1.115 6.158-1.83a62.11 62.11 0 006.023-2.58c4.284-2.01 8.21-4.553 11.936-7.407 3.703-2.854 7.094-6.068 10.24-9.593 3.124-3.48 5.846-7.272 8.254-11.256 1.16-1.918 2.143-3.97 3.168-6.024.892-1.918 1.697-3.925 2.365-5.932.714-2.142 1.294-4.33 1.828-6.514.536-2.32.982-4.64 1.296-7.006.44-4.15.044-8.255-.446-12.315-.624-5.087-1.83-10.062-3.57-14.793-.447-1.205-.936-2.41-1.473-3.57l-1.16-2.588c-1.117-2.186-2.322-4.372-3.66-6.425a66.4 66.4 0 00-4.594-6.38c-1.696-2.053-3.48-4.016-5.398-5.8-1.918-1.83-4.016-3.48-6.112-5.087-2.1-1.606-4.373-3.034-6.67-4.284-2.277-1.25-4.64-2.32-7.05-3.257-3.926-1.517-8.03-2.767-12.225-3.48-2.365-.358-4.73-.714-7.094-.892-2.766-.223-5.532 0-8.253 0zm-36.58 23c1.518.135 3.08.27 4.642.537 1.918.312 3.836.892 5.666 1.562 2.543.937 4.863 2.186 7.05 3.703 3.168 2.186 5.8 4.774 7.986 7.72 1.695 2.32 3.125 4.818 4.15 7.45.937 2.498 1.606 5.175 1.963 7.807.446 3.168.58 6.38.134 9.548-.446 3.437-1.383 6.694-2.677 9.818-.937 2.275-2.143 4.373-3.48 6.38-1.384 2.052-2.9 3.97-4.594 5.71-1.606 1.696-3.302 3.214-5.176 4.553-1.83 1.336-3.882 2.406-5.934 3.3-3.48 1.517-7.094 2.454-10.82 2.9-3.258.4-6.604.267-9.862-.135-2.989-.446-5.935-1.204-8.7-2.408-2.944-1.303-5.622-2.856-8.12-4.73-2.453-1.83-4.594-3.97-6.424-6.334-1.83-2.41-3.392-5.042-4.595-7.852-1.16-2.898-1.963-5.978-2.32-9.057-.357-3.034-.267-6.158.1-9.193.39-3.48 1.205-6.826 2.32-10.062.893-2.498 2.054-4.862 3.436-7.093 1.428-2.23 3.034-4.238 4.818-6.113 1.74-1.83 3.658-3.48 5.756-4.907 2.01-1.383 4.284-2.498 6.56-3.48 2.365-1.026 4.818-1.695 7.362-2.142 2.364-.447 4.93-.536 7.385-.67l3.034-.001zm64.623 84.76c-1.56.278-3.12.456-4.637.937-1.517.447-2.945 1.115-4.24 1.918-1.205.714-2.32 1.562-3.214 2.587-.892.982-1.562 2.186-1.918 3.436-.446 1.607-.178 3.168.67 4.55.803 1.383 1.918 2.276 3.258 2.9 1.69.804 3.568 1.16 5.442 1.16 1.607 0 3.258-.356 4.819-.758 1.824-.446 3.658-1.07 5.31-1.918 1.784-.892 3.392-2.053 4.773-3.39 1.383-1.384 2.543-3.034 3.213-4.862.624-1.74.624-3.658-.312-5.266-.937-1.652-2.454-2.766-4.15-3.39-1.874-.714-3.836-.804-5.8-.714-1.07-.09-2.185 0-3.214.09z"/>
</svg>
