
<svg xmlns="http://www.w3.org/2000/svg" viewBox="0 0 180 180">
  <path d="M77.955 73.828H84.7v2.064h-4.243v4.088h3.925v2.064h-3.925v4.931h4.407v2.064h-6.909V73.828zm8.517 0h2.423l3.883 6.153 1.407 2.542h.073l-.118-2.542v-6.153h2.38v15.211h-2.38l-3.924-6.195-1.365-2.5h-.074l.118 2.5v6.195h-2.38V73.828h-.043zm16.788-.232c1.993 0 3.291 1.304 3.291 3.452 0 2.19-1.45 3.452-3.545 3.452h-1.984v8.539h-2.502V73.596h4.74zm-2.238 4.93h1.95c1.331 0 1.686-.713 1.686-1.71 0-.956-.397-1.751-1.686-1.751h-1.95v3.461zm7.882 10.281V73.828h2.502v15.211h-2.502v-.232zm8.33-15.211h2.43l3.882 6.153 1.407 2.542h.074l-.118-2.542v-6.153h2.38v15.211h-2.38l-3.924-6.195-1.366-2.5h-.073l.117 2.5v6.195h-2.38V73.828h-.049zm15.957 0h6.423v2.064h-3.92v13.147h-2.502V75.892h-3.924v-2.064h3.923zm-103.25 54.054c-25.046 0-45.376-20.33-45.376-45.377 0-25.045 20.33-45.376 45.376-45.376 14.268 0 27.007 6.604 35.358 16.912L19.545 90.27l4.93 4.55 14.016-15.08v48.142h6.96V79.739L59.47 94.82l4.93-4.55-29.543-31.804a40.332 40.332 0 00-4.93 19.39c0 22.278 18.098 40.376 40.377 40.376 22.278 0 40.376-18.098 40.376-40.377 0-22.278-18.098-40.376-40.376-40.376-7.86 0-15.183 2.277-21.385 6.19l3.208 3.248c5.52-3.208 11.9-5.026 18.672-5.026 20.498 0 37.125 16.627 37.125 37.126 0 20.498-16.627 37.125-37.125 37.125-20.499 0-37.126-16.627-37.126-37.125 0-6.109 1.49-11.857 4.088-16.953l-3.2-3.249c-3.048 5.685-4.8 12.162-4.8 19.06-.164 25.341 20.21 45.793 45.209 45.793s45.376-20.452 45.376-45.376c0-24.923-20.33-45.376-45.376-45.376-14.31 0-27.05 6.646-35.4 16.953l3.208 3.249c7.486-9.204 18.88-15.134 31.684-15.134 22.278 0 40.376 18.098 40.376 40.376 0 22.279-18.098 40.377-40.376 40.377z" fill="#000"/>
</svg>
