
<svg xmlns="http://www.w3.org/2000/svg" viewBox="0 0 256 256">
  <g>
    <path d="M235.266 99.192l-83.992 119.945a40.655 40.655 0 01-33.425 17.566h-2.79l88.372-125.937a32.89 32.89 0 0127.007-14.17h3.29c4.149 0 6.586 4.618 1.538 2.596z" fill="#4A98C9"/>
    <path d="M198.54 89.476a40.656 40.656 0 0133.425-17.565h2.79L146.383 197.85a32.89 32.89 0 01-27.007 14.17h-3.29c-4.15 0-6.586-4.619-1.54-2.596L198.54 89.476z" fill="#4A98C9"/>
    <path d="M181.64 46.657c-10.47 30.433-33.455 83.345-53.975 132.493-11.448 27.456-45.827 29.273-40.166.562l14.256-72.55c1.628-8.28-5.348-13.607-13.738-10.257l-47.218 18.87-2.153-5.382L165.493 41.83c8.246-5.073 17.416.077 16.146 4.826z" fill="#282B73"/>
  </g>
</svg>
