
<svg xmlns="http://www.w3.org/2000/svg" viewBox="0 0 256 256">
  <path d="M249.974 222.033c-.7-2.12-2.67-3.538-4.918-3.538-2.79 0-5.586 2.103-5.586 5.587 0 4.36 5.586 6.08 9.108 3.119 1.555-1.265 2.1-3.539 1.396-5.168" fill="#000000"/>
  <path d="M237.365 24.376c-9.9-2.647-21.053-1.181-31.847 1.068-19.5-3.304-39.082-2.31-58.582.472-10.1-1.647-27.655-4.278-37.877.897.001-.002-57.35 12.61-42.6 104.726-2.147 2.473-6.664 12.172-7.437 21.435-1.179 14.133 1.178 26.773 7.437 30.713.943.61 10.918 8.696 24.344.944 4.451 2.062 12.628 6.1 21.287 1.651.41 3.721 1.323 7.884 2.12 12.599-2.476 1.771-1.532 3.304-.592 5.234 1.77 3.54 3.068 2.83 4.246 5.588 1.177 2.757 1.18 5.287.352 6.82 2.949 7.678 7.196 19.806 9.365 36.368 1.77 13.25 15.845 9.011 15.49.714-.298-7.199-1.179-14.605-2.358-22.15 9.134 6.464 15.49-1.767 9.01-8.817-2.83-3.089-6.937-5.447-11.369-6.82 2.205-17.937-2.712-25.248-8.464-36.26 5.115-1.417 9.718-4.613 12.45-9.716 33.027 4.248 42.925-12.153 47.096-16.285 1.89-1.878 5.275-1.337 6.138-2.516 2.121-2.83-.354-5.023-.472-7.554-.118-2.83 1.533-5.353 3.066-8.183.235-.437.942-2.358-.236-3.066l.118-.118c2.83-.826 7.195-2.474 10.025-5.42 2.947-2.945 8.418-13.326-9.599-11.086.237-.707 1.533-4.599 1.179-8.728-.355-4.717-3.54-9.785-6.724-11.496 1.652-4.364.591-8.728-.59-12.974-3.457-13.21-11.147-28.594-19.577-39.616 4.363-11.614 10.852-26.455 20.049-31.376-7.716-1.574-15.664-2.182-24.844-.589" fill="#336791"/>
  <path d="M108.419 79.154c-2.235.028-4.592.175-7.075.458-8.953 1.024-18.884 5.152-29.146 12.345L78.474 155.6c0 .118 40.466-21.098 39.83-58.582-.413-3.458-.43-7.189-1.652-10.971-1.095-3.015-2.823-5.696-5.488-6.136-.593-.116-1.26-.178-1.956-.168-.293-.011-.53-.007-.789-.007z" fill="#ffffff"/>
  <g fill="#ffffff">
    <path d="M172.347 190.335c-11.045 3.67-18.654 9.93-18.654 9.93s10.137 39.713-8.938 45.362c-28.358 8.408-41.215-26.774-41.924-47.332-.117-9.469-.943-14.254-.943-14.254s-5.112 4.13-5.112 16.166c0 12.035-1.179 30.79-2.358 39.735-1.178 8.946-4.127 25.795-20.411 22.147-16.286-3.653-26.208-9.717-29.51-41.263-2.121-20.585 7.232-47.994 7.232-47.994s-7.942 42.165 4.48 42.165c12.429 0 13.037-38.774 13.037-38.774l3.304-58.464s-3.303-24.26-2.358-33.794c.94-9.54 5.706-39.736 25.522-45.596 19.816-5.868 25.523-1.768 31.23 2.356 5.705 4.126 18.716 17.22 12.01 52.07l-5.234 29.198s-1.057 22.38 1.065 31.325c2.12 8.946 8.937 22.974 8.937 22.974s5.118-18.375 3.54-31.325c-1.58-12.958.118-29.2.118-29.2l4.598-24.554s-3.775-15.608-1.059-23.435c2.712-7.832 7.312-18.375 18.598-20.257 11.28-1.89 19.078.118 24.435 9.716 5.352 9.6 7.707 24.258 4.287 39.853-3.42 15.608-6.724 18.962-6.724 18.962s11.04-.944 16.63-4.716c5.587-3.775 8.819-6.722 13.525-13.918 4.717-7.196 9.916-20.175 6.256-37.03-3.656-16.86-13.448-28.356-17.223-32.13-3.776-3.776-17.225-14.844-36.06-14.844-18.833 0-28.355 4.715-33.349 7.664-5.004 2.95-13.75 6.725-19.457 17.816-5.708 11.096-5.692 9.952-7.11 15.972L82.561 79.624s6.71-7.9 10.486-11.2c3.772-3.304 14.489-12.73 34.3-14.727 19.813-1.994 31.642 3.069 39.071 7.31 7.432 4.246 19.34 13.92 24.081 33.109 4.741 19.196-.116 37.57-9.01 48.77-8.897 11.2-23.152 17.225-28.732 18.847-5.588 1.634-11.735 2.005-11.735 2.005s9.614 9.953 11.97 12.428c2.357 2.475 5.707 5.468 12.967 6.17 7.253.707 14.844-1.179 18.853-2.948 4.009-1.77 12.624-5.941 17.696-15.368 5.07-9.423 4.835-22.853 4.835-25.916 0-3.067.233-11.734-2.361-22.816-2.591-11.086-9.427-21.053-12.615-25.766-3.184-4.716-10.5-15.723-23.482-22.62-12.99-6.891-28.124-7.9-34.89-7.78-6.772.113-18.244 1.407-29.447 7.9-11.204 6.489-18.36 15.017-23.015 21.997-4.661 6.99-11.912 20.324-11.912 20.324l6.608 80.401s-2.359 15.251-2.242 21.29c.116 6.026-1.06 28.592 5.586 42.51 6.653 13.918 13.97 15.844 17.813 16.61 3.84.761 11.201 1.768 19.676-1.066 8.468-2.83 13.97-5.772 17.579-13.682 3.599-7.9 4.074-13.566 5.253-26.137 1.182-12.568 1.949-30.73 3.067-34.77 1.118-4.037 3.066-4.618 3.066-4.618s-3.066 34.151-2.358 48.655c.708 14.496 1.416 23.324 5.667 32.896 4.249 9.568 10.078 12.984 16.976 13.447 6.9.472 13.682-2.003 16.976-4.48 3.304-2.477 8.23-5.941 11.262-14.961 3.026-9.012 3.419-20.213 3.737-25.104.319-4.897 2.236-32.307 2.236-32.307l9.659-66.75c1.062-6.722 2.123-13.447-.235-20.11-2.364-6.666-5.075-12.933-14.257-15.45-1.429-.458-3.128-.77-5.085-.935"/>
    <path d="M237.92 187.387c-3.664.707-6.608 3.42-8.376 6.49-1.653 2.83-2.24 5.94-1.652 9.130.47 2.358 1.77 4.834 3.894 6.37.59.47 1.297.825 1.887 1.18.944-1.532 1.533-3.183 1.887-4.833.353-1.533.471-3.184.471-4.717-.118-4.95.59-9.365 1.889-13.62M107.89 79.416c.118 0 .118 0 0 0"/>
  </g>
  <path d="M239.573 199.96c-.352 0-.47 0-.943.118-.235.116-.235.35-.235.47 0 .117 0 .353.235.47.473.117.59.117.943.117h.119c.47 0 .708-.117.943-.236.118-.236.236-.236.236-.47 0-.118-.118-.353-.236-.47-.117 0-.473-.117-.943-.117-.119.118-.119.118-.119.118M243.347 198.899s-.118-.118-.354-.118c-.354 0-.589.118-.589.118-.117.118-.235.353-.235.47 0 .118.118.353.235.47.118.118.118.118.59.118.353 0 .589-.118.706-.236.118-.117.118-.352.118-.47 0-.235-.236-.352-.471-.352" fill="#ffffff"/>
  <path d="M236.271 200.785c.943.236 2.359.353 3.892.118.472-.118.826-.118 1.298-.235h.116c.943-.237 1.652-.59 2.24-1.18.235-.118.47-.353.47-.707 0-.47-.471-.943-.943-.943l-.116.117h-.118l.118.118c.116 0 .116.118.116.118v.117c0 .236-.117.354-.47.59-.826.47-2.122.707-3.184.707-.826 0-1.533-.237-1.652-.59-.118-.117-.118-.236-.118-.472 0-.235 0-.352.118-.588.118-.236.473-.47.943-.707l.236-.118c.235-.118.47-.236.589-.353.354-.236.59-.59.59-.944 0-.353 0-.47-.119-.707-.118-.117-.118-.235-.236-.351l-.117-.117c-.471-.355-1.533-.59-2.948-.59-1.414 0-2.479.235-2.83.59l-.118.117c-.236.118-.236.235-.236.47 0 .471.472.943.943.943 0 0 .118-.117.236-.117l-.118-.118c-.118 0-.236-.117-.236-.235 0-.118 0-.236.117-.354.118-.117.59-.235 1.533-.235 1.768 0 2.476.352 2.594.588v.118c0 .117-.116.235-.236.352-.117.116-.353.235-.588.353l-.236.116c-.354.237-.589.355-.826.591-.354.354-.471.826-.471 1.298 0 .47 0 .825.236 1.179.234.354.587.47 1.06.707" fill="#ffffff"/>
  <path d="M248.819 198.193c0-.117-.118-.235-.236-.235h-.118l-.118.118.118.118c.118 0 .118.118.118.118v1.18c0 .825.235 1.18.825 1.298.118 0 .236.117.353.117.118 0 .236 0 .354-.117.118-.118.236-.236.236-.471 0-.118-.118-.235-.236-.235l-.118.117c-.118 0-.118 0-.118-.117-.117-.118-.117-.353-.117-.708v-1.18h.353c.235 0 .353-.118.353-.236 0-.117-.118-.235-.235-.235h-.472v-.825c0-.117 0-.118-.117-.118-.118 0-.236.118-.236.236v.708h-.235v-.353" fill="#ffffff"/>
  <path d="M252.01 198.075c-.236 0-.354.118-.59.354-.236-.236-.471-.354-.825-.354-.826 0-1.535.59-1.535 1.534 0 .943.709 1.534 1.417 1.534.354 0 .59-.118.825-.354.118.236.353.354.59.354.353 0 .47-.236.47-.589v-1.062c0-.59 0-.944-.118-1.18 0-.118-.118-.237-.235-.237m-1.181 2.595c-.47 0-.825-.472-.825-1.06 0-.59.354-1.063.825-1.063s.826.473.826 1.063c.117.588-.355 1.06-.826 1.06" fill="#ffffff"/>
  <path d="M254.957 198.075c-.943 0-1.534.707-1.534 1.534 0 .825.591 1.534 1.534 1.534.942 0 1.533-.71 1.533-1.534 0-.827-.591-1.534-1.533-1.534m-.118 2.595c-.59 0-1.06-.471-1.06-1.06 0-.59.47-1.063 1.06-1.063.59 0 1.06.473 1.06 1.063 0 .589-.47 1.06-1.06 1.06" fill="#ffffff"/>
  <path d="M229.544 198.075c-.943 0-1.534.707-1.534 1.534 0 .825.591 1.534 1.534 1.534.942 0 1.533-.71 1.533-1.534 0-.827-.591-1.534-1.533-1.534m0 2.595c-.59 0-1.06-.471-1.06-1.06 0-.59.47-1.063 1.06-1.063.59 0 1.06.473 1.06 1.063 0 .589-.47 1.06-1.06 1.06" fill="#ffffff"/>
  <path d="M232.025 198.193c0-.117-.118-.235-.236-.235h-.118v.118l.118.118c.118 0 .118.118.118.118v1.18c0 .825.235 1.18.825 1.298.118 0 .236.117.353.117.118 0 .236 0 .354-.117.118-.118.236-.236.236-.471 0-.118-.118-.235-.236-.235l-.118.117c-.118 0-.118 0-.118-.117-.117-.118-.117-.353-.117-.708v-1.18h.353c.235 0 .353-.118.353-.236 0-.117-.118-.235-.235-.235h-.472v-.825c0-.117 0-.118-.117-.118-.118 0-.236.118-.236.236v.708h-.353l-.118-.119.118.237" fill="#ffffff"/>
  <path d="M234.857 198.075c-.825 0-1.416.707-1.416 1.534 0 .825.591 1.534 1.534 1.534.354 0 .707-.118.943-.353.118-.118.235-.236.235-.471 0-.118-.117-.235-.235-.235-.117 0-.117 0-.235.117-.118.117-.354.236-.708.236-.471 0-.826-.354-.826-.826h1.887c.118 0 .236-.117.236-.235v-.118c-.118-.707-.708-1.183-1.415-1.183m-.708 1.18c.118-.471.471-.707.826-.707.353 0 .59.236.707.707h-1.533M145.842 84.11c.354.117.707.235.943.353.352.118.707.235.943.471.353.118.588.353.943.471.236.118.588.471.825.707a26.265 26.265 0 0 1 1.533 1.533c.472.59.94 1.18 1.416 1.77.471.707.825 1.414 1.18 2.121.352.707.588 1.533.825 2.356.118.353.118.824.236 1.297 0 .47.117.825.117 1.296v1.298l-.117 1.297c-.118.471-.118.94-.236 1.414-.118.471-.236.825-.353 1.297-.236.47-.354.824-.59 1.18-.117.352-.354.707-.588 1.06-.236.353-.473.59-.709.943-.236.236-.471.59-.707.825-.236.235-.59.471-.826.707-.471.352-.825.707-1.297 1.06-.471.353-.943.588-1.414.825-.472.235-1.063.47-1.534.707-.471.117-1.06.353-1.65.47-.59.118-1.18.236-1.771.353-.59.118-1.179.118-1.77.118-.588 0-1.297.118-1.887.118h-1.888c-.707 0-1.416-.118-2.123-.118-.707-.117-1.414-.235-2.121-.47-.707-.117-1.298-.354-1.888-.59-.588-.117-1.179-.353-1.768-.707-.588-.236-1.179-.59-1.769-.944-.588-.352-1.06-.707-1.65-1.178-.472-.353-.943-.825-1.415-1.296-.353-.471-.825-.943-1.178-1.414-.353-.59-.708-1.06-.943-1.651l-.826-1.77c-.236-.59-.353-1.296-.471-1.887a7.366 7.366 0 0 1-.235-1.887c0-.707 0-1.296.117-2.003.118-.708.354-1.414.59-2.121.235-.708.589-1.298.942-2.004.354-.59.826-1.18 1.298-1.77.471-.59.942-1.061 1.533-1.533.588-.471 1.179-.943 1.769-1.297.707-.353 1.414-.707 2.121-.943.708-.235 1.416-.47 2.24-.589.59-.117 1.18-.235 1.77-.235h1.887c.588 0 1.179.118 1.768.236.59.117 1.06.235 1.652.352.588.236 1.06.472 1.65.707.59.236.943.59 1.414.826.471.235.825.589 1.179.943.353.354.707.707.942 1.06.236.354.59.708.709 1.18.236.47.353.942.47 1.414.118.47.236.943.236 1.414v1.414c0 .471-.118.943-.118 1.297-.118.47-.118.943-.354 1.413-.118.473-.354.826-.59 1.297-.235.47-.47.826-.825 1.179-.353.353-.707.707-1.178.943-.471.354-1.06.59-1.533.825-.589.237-1.179.354-1.887.59-.59.117-1.297.235-1.887.353-.59 0-1.297.118-1.887.118-.59 0-1.297 0-1.887-.118-.59-.117-1.298-.235-1.887-.353-.59-.117-1.179-.353-1.77-.59-.59-.235-1.178-.471-1.65-.826-.472-.351-.943-.707-1.297-1.178-.472-.471-.826-.943-1.061-1.533-.236-.472-.472-1.06-.59-1.652-.117-.588-.235-1.178-.235-1.768v-1.77c0-.589.118-1.179.235-1.77.117-.588.353-1.177.59-1.767.236-.589.59-1.18.943-1.65.472-.472.825-.944 1.297-1.299.472-.352.943-.707 1.533-.943.471-.235 1.06-.47 1.65-.589.59-.117 1.18-.235 1.77-.353.47-.118.943-.118 1.414-.118.471-.117.943 0 1.414 0 .471 0 .943.118 1.414.118.472.117.943.235 1.416.353" fill="#ffffff"/>
  <path d="M227.54 152.417l-1.887.471-.708-2.83 6.371-1.652.707 2.83-1.886.47 2.83 10.862-2.595.707-2.83-10.86-.001.002zm12.85-.826c-2.12.472-3.774 1.533-4.599 3.184-.824 1.65-.824 3.656.354 5.823 1.178 2.24 2.83 3.42 4.95 3.42 2.121 0 3.77-.944 4.953-2.832l.708 1.533c-1.533 2.24-3.892 3.42-6.724 3.774-2.712.353-5.113-.59-6.9-2.832-1.768-2.239-2.24-4.716-1.414-7.427.823-2.713 2.712-4.6 5.587-5.588 2.83-.707 5.25-.117 7.256 1.887l-1.18 1.297c-1.414-1.534-3.064-2.004-5.113-1.77l1.122.471zm8.848 5.47c.472 2.476 1.297 4.246 2.477 5.354 1.297.942 2.83 1.178 4.717.589 1.887-.471 3.063-1.415 3.654-2.713.707-1.297.824-2.83.47-4.6-.47-2.475-1.295-4.36-2.475-5.25-1.178-1.063-2.713-1.299-4.6-.826-1.769.589-3.066 1.416-3.773 2.713-.708 1.298-.824 2.712-.47 4.716v.017zm12.31-3.422c.59 2.948.234 5.244-1.298 7.073-1.532 1.887-3.773 3.065-6.605 3.774-2.832.707-5.349.353-7.437-1.063-2.123-1.416-3.42-3.774-4.01-6.722-.59-2.949-.236-5.354 1.296-7.074 1.534-1.887 3.773-3.066 6.608-3.774 2.83-.706 5.348-.353 7.435 1.063 2.12 1.297 3.42 3.774 4.01 6.723zm7.078-16.977l2.713-.59 4.715 21.4-2.713.707-4.715-21.517zm10.626 6.133l-1.887.47-.707-2.83 6.37-1.651.707 2.83-1.886.47 2.83 10.862-2.597.708-2.83-10.86zm12.855-.826c-2.121.471-3.773 1.533-4.6 3.184-.825 1.65-.825 3.656.354 5.823 1.177 2.24 2.83 3.42 4.95 3.42 2.12 0 3.773-.944 4.95-2.832l.707 1.533c-1.532 2.24-3.892 3.42-6.723 3.774-2.712.353-5.112-.59-6.902-2.832-1.768-2.239-2.24-4.716-1.413-7.427.823-2.713 2.712-4.6 5.586-5.588 2.831-.707 5.252-.117 7.254 1.887l-1.178 1.297c-1.414-1.534-3.066-2.004-5.113-1.77l1.128.471z" fill="#ffffff"/>
</svg>
