
<svg xmlns="http://www.w3.org/2000/svg" viewBox="0 0 256 256">
  <path d="M249.422 127.954c0-67.303-54.58-121.879-121.88-121.879C60.243 6.075 5.663 60.651 5.663 127.954c0 67.299 54.58 121.875 121.879 121.875 67.3 0 121.88-54.576 121.88-121.875" fill="#1679B5"/>
  <path d="M127.542 47.135l38.458 33.422-26.226 33.812-3.631-9.93 13.495-17.428-22.096-19.208-22.097 19.208 13.495 17.428-3.631 9.93-26.226-33.812 38.459-33.422z" fill="#FFF"/>
  <path d="M127.542 208.746l38.458-33.423-26.226-33.812-3.631 9.93 13.495 17.429-22.096 19.208-22.097-19.208 13.495-17.429-3.631-9.93-26.226 33.812 38.459 33.423z" fill="#FFF"/>
  <path d="M208.745 127.953l-33.423-38.458-33.812 26.225 9.93 3.632 17.429-13.495 19.207 22.096-19.207 22.097-17.43-13.495-9.929 3.631 33.812 26.226 33.423-38.459z" fill="#FFF"/>
  <path d="M47.135 127.953l33.423-38.458 33.811 26.225-9.929 3.632-17.428-13.495-19.209 22.096 19.209 22.097 17.428-13.495 9.93 3.631-33.812 26.226-33.423-38.459z" fill="#FFF"/>
  <path d="M127.542 86.962c-22.64 0-41 18.362-41 40.992 0 22.635 18.36 40.993 41 40.993 22.63 0 40.992-18.358 40.992-40.993 0-22.63-18.361-40.992-40.992-40.992" fill="#FFF"/>
</svg>
